<mxfile host="Electron" modified="2024-01-04T23:51:08.222Z" agent="Mozilla/5.0 (Windows NT 10.0; Win64; x64) AppleWebKit/537.36 (KHTML, like Gecko) draw.io/22.1.16 Chrome/120.0.6099.109 Electron/28.1.0 Safari/537.36" etag="s_VEaZrLq1s2dnSXp9m6" version="22.1.16" type="device" pages="3">
  <diagram name="Page-1" id="WZk79Mis1js5u0iVaJR2">
    <mxGraphModel dx="780" dy="590" grid="1" gridSize="10" guides="1" tooltips="1" connect="1" arrows="1" fold="1" page="1" pageScale="1" pageWidth="850" pageHeight="1100" math="0" shadow="0">
      <root>
        <mxCell id="0" />
        <mxCell id="1" parent="0" />
        <mxCell id="h0ygzT3zNA7kmTL6owmV-2" value="" style="rounded=0;whiteSpace=wrap;html=1;dashed=1;fillColor=#F7F7F7;fontColor=#333333;strokeColor=#666666;" parent="1" vertex="1">
          <mxGeometry x="150" y="40" width="510" height="680" as="geometry" />
        </mxCell>
        <mxCell id="wdH5l6EvP93S32GJvvEm-46" value="" style="rounded=0;whiteSpace=wrap;html=1;fillColor=#E3FCFB;strokeColor=#43DCEC;" parent="1" vertex="1">
          <mxGeometry x="170" y="48.5" width="473" height="221.5" as="geometry" />
        </mxCell>
        <mxCell id="wdH5l6EvP93S32GJvvEm-58" value="" style="rounded=1;whiteSpace=wrap;html=1;fillColor=#CCFFFF;glass=0;strokeColor=#82D3DC;" parent="1" vertex="1">
          <mxGeometry x="468" y="80" width="148" height="156" as="geometry" />
        </mxCell>
        <mxCell id="wdH5l6EvP93S32GJvvEm-47" value="" style="rounded=0;whiteSpace=wrap;html=1;fillColor=#eaf9fb;strokeColor=#0e8088;" parent="1" vertex="1">
          <mxGeometry x="200" y="568" width="410" height="132" as="geometry" />
        </mxCell>
        <mxCell id="wdH5l6EvP93S32GJvvEm-29" value="" style="rounded=0;whiteSpace=wrap;html=1;fillColor=#E2ECEF;strokeColor=#43DCEC;" parent="1" vertex="1">
          <mxGeometry x="200" y="328" width="400" height="172" as="geometry" />
        </mxCell>
        <mxCell id="wdH5l6EvP93S32GJvvEm-57" value="event&lt;br&gt;&amp;lt;&amp;lt;grpc&amp;gt;&amp;gt;" style="edgeStyle=orthogonalEdgeStyle;rounded=0;orthogonalLoop=1;jettySize=auto;html=1;" parent="1" source="wdH5l6EvP93S32GJvvEm-1" target="wdH5l6EvP93S32GJvvEm-2" edge="1">
          <mxGeometry relative="1" as="geometry" />
        </mxCell>
        <mxCell id="wdH5l6EvP93S32GJvvEm-1" value="Listener" style="rounded=0;whiteSpace=wrap;html=1;fillColor=#00A2B8;strokeColor=#82D3DC;fontColor=#ffffff;" parent="1" vertex="1">
          <mxGeometry x="210" y="87" width="60" height="132" as="geometry" />
        </mxCell>
        <mxCell id="wdH5l6EvP93S32GJvvEm-62" value="event&lt;br&gt;&amp;lt;&amp;lt;grpc&amp;gt;&amp;gt;" style="edgeStyle=orthogonalEdgeStyle;rounded=0;orthogonalLoop=1;jettySize=auto;html=1;entryX=0;entryY=0.5;entryDx=0;entryDy=0;endArrow=none;endFill=0;startArrow=classic;startFill=1;" parent="1" edge="1">
          <mxGeometry relative="1" as="geometry">
            <mxPoint x="387" y="133" as="sourcePoint" />
            <mxPoint x="468" y="133" as="targetPoint" />
          </mxGeometry>
        </mxCell>
        <mxCell id="wdH5l6EvP93S32GJvvEm-2" value="Job&lt;br&gt;Queue" style="rounded=0;whiteSpace=wrap;html=1;fillColor=#00A2B8;strokeColor=#82D3DC;fontColor=#ffffff;" parent="1" vertex="1">
          <mxGeometry x="328" y="88" width="60" height="132" as="geometry" />
        </mxCell>
        <mxCell id="wdH5l6EvP93S32GJvvEm-4" value="" style="rounded=0;whiteSpace=wrap;html=1;fillColor=#00A2B8;strokeColor=#82D3DC;fontColor=#ffffff;" parent="1" vertex="1">
          <mxGeometry x="487" y="91" width="60" height="50" as="geometry" />
        </mxCell>
        <mxCell id="wdH5l6EvP93S32GJvvEm-7" value="" style="rounded=0;whiteSpace=wrap;html=1;fillColor=#00A2B8;strokeColor=#82D3DC;fontColor=#ffffff;" parent="1" vertex="1">
          <mxGeometry x="497" y="111" width="60" height="50" as="geometry" />
        </mxCell>
        <mxCell id="wdH5l6EvP93S32GJvvEm-9" value="" style="rounded=0;whiteSpace=wrap;html=1;fillColor=#00A2B8;strokeColor=#82D3DC;fontColor=#ffffff;" parent="1" vertex="1">
          <mxGeometry x="507" y="131" width="60" height="50" as="geometry" />
        </mxCell>
        <mxCell id="wdH5l6EvP93S32GJvvEm-11" value="" style="rounded=0;whiteSpace=wrap;html=1;fillColor=#00A2B8;strokeColor=#82D3DC;fontColor=#ffffff;" parent="1" vertex="1">
          <mxGeometry x="517" y="151" width="60" height="50" as="geometry" />
        </mxCell>
        <mxCell id="wdH5l6EvP93S32GJvvEm-13" value="worker" style="rounded=0;whiteSpace=wrap;html=1;fillColor=#00A2B8;strokeColor=#82D3DC;fontColor=#ffffff;" parent="1" vertex="1">
          <mxGeometry x="528" y="169" width="60" height="50" as="geometry" />
        </mxCell>
        <mxCell id="wdH5l6EvP93S32GJvvEm-53" style="edgeStyle=orthogonalEdgeStyle;rounded=0;orthogonalLoop=1;jettySize=auto;html=1;entryX=0.25;entryY=0;entryDx=0;entryDy=0;startArrow=classic;startFill=1;" parent="1" source="wdH5l6EvP93S32GJvvEm-26" target="wdH5l6EvP93S32GJvvEm-27" edge="1">
          <mxGeometry relative="1" as="geometry" />
        </mxCell>
        <mxCell id="wdH5l6EvP93S32GJvvEm-26" value="Job&lt;br&gt;Repository" style="rounded=0;whiteSpace=wrap;html=1;fillColor=#00A2B8;strokeColor=#82D3DC;fontColor=#ffffff;" parent="1" vertex="1">
          <mxGeometry x="217" y="357" width="89" height="47" as="geometry" />
        </mxCell>
        <mxCell id="wdH5l6EvP93S32GJvvEm-27" value="Control" style="rounded=0;whiteSpace=wrap;html=1;fillColor=#00A2B8;strokeColor=#82D3DC;fontColor=#ffffff;" parent="1" vertex="1">
          <mxGeometry x="351" y="427" width="89" height="47" as="geometry" />
        </mxCell>
        <mxCell id="wdH5l6EvP93S32GJvvEm-54" style="edgeStyle=orthogonalEdgeStyle;rounded=0;orthogonalLoop=1;jettySize=auto;html=1;startArrow=classic;startFill=1;" parent="1" source="wdH5l6EvP93S32GJvvEm-28" target="wdH5l6EvP93S32GJvvEm-27" edge="1">
          <mxGeometry relative="1" as="geometry">
            <Array as="points">
              <mxPoint x="434" y="387" />
            </Array>
          </mxGeometry>
        </mxCell>
        <mxCell id="wdH5l6EvP93S32GJvvEm-28" value="Job&lt;br&gt;Recorder" style="rounded=0;whiteSpace=wrap;html=1;fillColor=#00A2B8;strokeColor=#82D3DC;fontColor=#ffffff;" parent="1" vertex="1">
          <mxGeometry x="486" y="357" width="89" height="47" as="geometry" />
        </mxCell>
        <mxCell id="wdH5l6EvP93S32GJvvEm-43" value="Cli" style="rounded=0;whiteSpace=wrap;html=1;fillColor=#00A2B8;strokeColor=#82D3DC;fontColor=#ffffff;" parent="1" vertex="1">
          <mxGeometry x="210" y="600" width="92" height="44" as="geometry" />
        </mxCell>
        <mxCell id="wdH5l6EvP93S32GJvvEm-44" value="Term&lt;br&gt;Dashboard" style="rounded=0;whiteSpace=wrap;html=1;fillColor=#00A2B8;strokeColor=#82D3DC;fontColor=#ffffff;" parent="1" vertex="1">
          <mxGeometry x="348" y="621" width="92" height="44" as="geometry" />
        </mxCell>
        <mxCell id="wdH5l6EvP93S32GJvvEm-45" value="Web &lt;br&gt;Portal" style="rounded=0;whiteSpace=wrap;html=1;fillColor=#00A2B8;strokeColor=#82D3DC;fontColor=#ffffff;" parent="1" vertex="1">
          <mxGeometry x="486" y="600" width="92" height="44" as="geometry" />
        </mxCell>
        <mxCell id="wdH5l6EvP93S32GJvvEm-48" value="Control Plane" style="rounded=0;whiteSpace=wrap;html=1;align=left;fillColor=#647687;fontColor=#ffffff;strokeColor=#314354;fontSize=10;" parent="1" vertex="1">
          <mxGeometry x="200" y="328" width="70" height="19" as="geometry" />
        </mxCell>
        <mxCell id="wdH5l6EvP93S32GJvvEm-65" value="definitions/results&lt;br style=&quot;font-size: 11px;&quot;&gt;&lt;font style=&quot;font-size: 11px;&quot;&gt;&amp;lt;&amp;lt;grpc&amp;gt;&amp;gt;&lt;/font&gt;" style="edgeStyle=elbowEdgeStyle;rounded=0;elbow=horizontal;html=1;labelBackgroundColor=#ffffff;startArrow=classic;startFill=1;startSize=6;endArrow=classic;endFill=1;endSize=6;jettySize=auto;orthogonalLoop=1;strokeWidth=1;fontSize=11;" parent="1" edge="1">
          <mxGeometry width="60" height="60" relative="1" as="geometry">
            <mxPoint x="422" y="320" as="sourcePoint" />
            <mxPoint x="422" y="275" as="targetPoint" />
          </mxGeometry>
        </mxCell>
        <mxCell id="wdH5l6EvP93S32GJvvEm-66" value="Management Tools" style="rounded=0;whiteSpace=wrap;html=1;align=left;fillColor=#5897B3;strokeColor=#10739e;fontColor=#FFFFFF;fontSize=10;" parent="1" vertex="1">
          <mxGeometry x="200" y="568" width="91" height="19" as="geometry" />
        </mxCell>
        <mxCell id="wdH5l6EvP93S32GJvvEm-67" value="definitions/results&lt;br style=&quot;font-size: 11px;&quot;&gt;&lt;font style=&quot;font-size: 11px;&quot;&gt;&amp;lt;&amp;lt;grpc&amp;gt;&amp;gt;&lt;/font&gt;" style="edgeStyle=elbowEdgeStyle;rounded=0;elbow=horizontal;html=1;labelBackgroundColor=#ffffff;startArrow=classic;startFill=1;startSize=6;endArrow=classic;endFill=1;endSize=6;jettySize=auto;orthogonalLoop=1;strokeWidth=1;fontSize=11;" parent="1" edge="1">
          <mxGeometry width="60" height="60" relative="1" as="geometry">
            <mxPoint x="416" y="555" as="sourcePoint" />
            <mxPoint x="415.5" y="509" as="targetPoint" />
          </mxGeometry>
        </mxCell>
        <mxCell id="wdH5l6EvP93S32GJvvEm-73" value="Data Plane" style="rounded=0;whiteSpace=wrap;html=1;align=left;fillColor=#5897B3;fontColor=#ffffff;strokeColor=#314354;fontSize=10;" parent="1" vertex="1">
          <mxGeometry x="170" y="49" width="89" height="19" as="geometry" />
        </mxCell>
        <mxCell id="wdH5l6EvP93S32GJvvEm-75" value="" style="sketch=0;pointerEvents=1;shadow=0;dashed=0;html=1;strokeColor=none;labelPosition=center;verticalLabelPosition=bottom;verticalAlign=top;align=center;fillColor=#303030;shape=mxgraph.mscae.oms.capacity" parent="1" vertex="1">
          <mxGeometry x="58" y="120" width="65" height="66" as="geometry" />
        </mxCell>
        <mxCell id="wdH5l6EvP93S32GJvvEm-77" value="" style="sketch=0;pointerEvents=1;shadow=0;dashed=0;html=1;strokeColor=none;labelPosition=center;verticalLabelPosition=bottom;verticalAlign=top;align=center;fillColor=#505050;shape=mxgraph.mscae.intune.account_portal" parent="1" vertex="1">
          <mxGeometry x="393" y="781" width="32" height="40" as="geometry" />
        </mxCell>
        <mxCell id="wdH5l6EvP93S32GJvvEm-79" value="" style="sketch=0;pointerEvents=1;shadow=0;dashed=0;html=1;strokeColor=none;labelPosition=center;verticalLabelPosition=bottom;verticalAlign=top;align=center;fillColor=#505050;shape=mxgraph.mscae.intune.account_portal" parent="1" vertex="1">
          <mxGeometry x="440" y="761" width="32" height="40" as="geometry" />
        </mxCell>
        <mxCell id="wdH5l6EvP93S32GJvvEm-80" value="" style="sketch=0;pointerEvents=1;shadow=0;dashed=0;html=1;strokeColor=none;labelPosition=center;verticalLabelPosition=bottom;verticalAlign=top;align=center;fillColor=#505050;shape=mxgraph.mscae.intune.account_portal" parent="1" vertex="1">
          <mxGeometry x="347" y="761" width="32" height="40" as="geometry" />
        </mxCell>
        <mxCell id="wdH5l6EvP93S32GJvvEm-85" value="jobs &lt;br style=&quot;font-size: 11px;&quot;&gt;definitions/results" style="edgeStyle=elbowEdgeStyle;rounded=0;elbow=vertical;html=1;labelBackgroundColor=#ffffff;startArrow=classic;startFill=1;startSize=6;endArrow=classic;endFill=1;endSize=6;jettySize=auto;orthogonalLoop=1;strokeWidth=1;fontSize=11;" parent="1" edge="1">
          <mxGeometry width="60" height="60" relative="1" as="geometry">
            <mxPoint x="409" y="770" as="sourcePoint" />
            <mxPoint x="409" y="700" as="targetPoint" />
          </mxGeometry>
        </mxCell>
        <mxCell id="wdH5l6EvP93S32GJvvEm-95" value="result&amp;nbsp;&lt;br&gt;&amp;lt;&amp;lt;grpc&amp;gt;&amp;gt;" style="edgeStyle=orthogonalEdgeStyle;rounded=0;orthogonalLoop=1;jettySize=auto;html=1;entryX=0;entryY=0.5;entryDx=0;entryDy=0;endArrow=none;endFill=0;startArrow=classic;startFill=1;dashed=1;" parent="1" edge="1">
          <mxGeometry relative="1" as="geometry">
            <mxPoint x="387" y="172.5" as="sourcePoint" />
            <mxPoint x="468" y="172.5" as="targetPoint" />
          </mxGeometry>
        </mxCell>
        <mxCell id="HcU0hM947xXHgbtGifDZ-4" value="events&lt;br&gt;&amp;lt;&amp;lt;rest&amp;gt;&amp;gt;" style="endArrow=classic;html=1;rounded=0;exitX=1;exitY=0.5;exitDx=0;exitDy=0;exitPerimeter=0;" parent="1" source="wdH5l6EvP93S32GJvvEm-75" target="wdH5l6EvP93S32GJvvEm-1" edge="1">
          <mxGeometry width="50" height="50" relative="1" as="geometry">
            <mxPoint x="60" y="140" as="sourcePoint" />
            <mxPoint x="110" y="90" as="targetPoint" />
          </mxGeometry>
        </mxCell>
      </root>
    </mxGraphModel>
  </diagram>
  <diagram id="Svu_nCRkyV6J1jdLz2wC" name="Page-2">
    <mxGraphModel dx="780" dy="590" grid="1" gridSize="10" guides="1" tooltips="1" connect="1" arrows="1" fold="1" page="1" pageScale="1" pageWidth="850" pageHeight="1100" math="0" shadow="0">
      <root>
        <mxCell id="0" />
        <mxCell id="1" parent="0" />
        <mxCell id="L_-vHprYVyh-Pi8YY-TG-3" value="GO 1.21" style="rounded=0;whiteSpace=wrap;html=1;fillColor=#dae8fc;strokeColor=#6c8ebf;fontSize=18;fontFamily=Helvetica;fontStyle=0" vertex="1" parent="1">
          <mxGeometry x="60" y="370" width="380" height="40" as="geometry" />
        </mxCell>
        <mxCell id="L_-vHprYVyh-Pi8YY-TG-5" value="Grpc" style="rounded=0;whiteSpace=wrap;html=1;fillColor=#d5e8d4;strokeColor=#82b366;fontSize=18;fontFamily=Helvetica;fontStyle=0" vertex="1" parent="1">
          <mxGeometry x="60" y="290" width="120" height="40" as="geometry" />
        </mxCell>
        <mxCell id="L_-vHprYVyh-Pi8YY-TG-6" value="Gorilla.Mux" style="rounded=0;whiteSpace=wrap;html=1;fillColor=#d5e8d4;strokeColor=#82b366;fontSize=18;fontFamily=Helvetica;fontStyle=0" vertex="1" parent="1">
          <mxGeometry x="180" y="290" width="120" height="40" as="geometry" />
        </mxCell>
        <mxCell id="L_-vHprYVyh-Pi8YY-TG-7" value="BBolt DB" style="rounded=0;whiteSpace=wrap;html=1;fillColor=#d5e8d4;strokeColor=#82b366;fontSize=18;fontFamily=Helvetica;fontStyle=0" vertex="1" parent="1">
          <mxGeometry x="60" y="330" width="120" height="40" as="geometry" />
        </mxCell>
        <mxCell id="L_-vHprYVyh-Pi8YY-TG-8" value="Otel" style="rounded=0;whiteSpace=wrap;html=1;fillColor=#e1d5e7;strokeColor=#9673a6;fontSize=18;fontFamily=Helvetica;fontStyle=0" vertex="1" parent="1">
          <mxGeometry x="300" y="261" width="70" height="109" as="geometry" />
        </mxCell>
        <mxCell id="L_-vHprYVyh-Pi8YY-TG-9" value="Zerolog" style="rounded=0;whiteSpace=wrap;html=1;fillColor=#e1d5e7;strokeColor=#9673a6;fontSize=18;fontFamily=Helvetica;fontStyle=0" vertex="1" parent="1">
          <mxGeometry x="370" y="261.5" width="70" height="109" as="geometry" />
        </mxCell>
        <mxCell id="L_-vHprYVyh-Pi8YY-TG-10" value="Wazero" style="rounded=0;whiteSpace=wrap;html=1;fillColor=#d5e8d4;strokeColor=#82b366;fontSize=18;fontFamily=Helvetica;fontStyle=0" vertex="1" parent="1">
          <mxGeometry x="180" y="330" width="120" height="40" as="geometry" />
        </mxCell>
        <mxCell id="L_-vHprYVyh-Pi8YY-TG-11" value="TView" style="rounded=0;whiteSpace=wrap;html=1;fillColor=#d5e8d4;strokeColor=#82b366;fontSize=18;fontFamily=Helvetica;fontStyle=0" vertex="1" parent="1">
          <mxGeometry x="60" y="261" width="120" height="29" as="geometry" />
        </mxCell>
        <mxCell id="L_-vHprYVyh-Pi8YY-TG-12" value="Goico Framework" style="rounded=0;whiteSpace=wrap;html=1;fillColor=#ffe6cc;strokeColor=#d79b00;fontSize=18;fontFamily=Helvetica;fontStyle=0" vertex="1" parent="1">
          <mxGeometry x="60" y="201" width="380" height="60" as="geometry" />
        </mxCell>
        <mxCell id="L_-vHprYVyh-Pi8YY-TG-13" value="Services" style="rounded=0;whiteSpace=wrap;html=1;fillColor=#f8cecc;strokeColor=#b85450;fontSize=18;fontFamily=Helvetica;fontStyle=0" vertex="1" parent="1">
          <mxGeometry x="61" y="141" width="219" height="60" as="geometry" />
        </mxCell>
        <mxCell id="L_-vHprYVyh-Pi8YY-TG-14" value="CMD" style="rounded=0;whiteSpace=wrap;html=1;fillColor=#d5e8d4;strokeColor=#82b366;fontSize=18;fontFamily=Helvetica;fontStyle=0" vertex="1" parent="1">
          <mxGeometry x="180" y="261" width="120" height="29" as="geometry" />
        </mxCell>
        <mxCell id="L_-vHprYVyh-Pi8YY-TG-15" value="Admin Tools" style="rounded=0;whiteSpace=wrap;html=1;fillColor=#f8cecc;strokeColor=#b85450;fontSize=18;fontFamily=Helvetica;fontStyle=0" vertex="1" parent="1">
          <mxGeometry x="280" y="141" width="160" height="60" as="geometry" />
        </mxCell>
      </root>
    </mxGraphModel>
  </diagram>
  <diagram id="iMsly1kVrbevSQ5clbe8" name="Page-3">
    <mxGraphModel dx="780" dy="590" grid="1" gridSize="10" guides="1" tooltips="1" connect="1" arrows="1" fold="1" page="1" pageScale="1" pageWidth="850" pageHeight="1100" math="0" shadow="0">
      <root>
        <mxCell id="0" />
        <mxCell id="1" parent="0" />
        <mxCell id="QbpytwBjE6BO_EtpEexZ-1" value="Go" style="rounded=0;whiteSpace=wrap;html=1;fillColor=#dae8fc;strokeColor=#6c8ebf;fontSize=18;fontFamily=Helvetica;fontStyle=0" vertex="1" parent="1">
          <mxGeometry x="60" y="370" width="380" height="40" as="geometry" />
        </mxCell>
        <mxCell id="QbpytwBjE6BO_EtpEexZ-2" value="Grpc" style="rounded=0;whiteSpace=wrap;html=1;fillColor=#d5e8d4;strokeColor=#82b366;fontSize=18;fontFamily=Helvetica;fontStyle=0" vertex="1" parent="1">
          <mxGeometry x="60" y="290" width="120" height="40" as="geometry" />
        </mxCell>
        <mxCell id="QbpytwBjE6BO_EtpEexZ-3" value="Gorilla.Mux" style="rounded=0;whiteSpace=wrap;html=1;fillColor=#d5e8d4;strokeColor=#82b366;fontSize=18;fontFamily=Helvetica;fontStyle=0" vertex="1" parent="1">
          <mxGeometry x="180" y="290" width="120" height="40" as="geometry" />
        </mxCell>
        <mxCell id="QbpytwBjE6BO_EtpEexZ-4" value="BBolt DB" style="rounded=0;whiteSpace=wrap;html=1;fillColor=#d5e8d4;strokeColor=#82b366;fontSize=18;fontFamily=Helvetica;fontStyle=0" vertex="1" parent="1">
          <mxGeometry x="60" y="330" width="120" height="40" as="geometry" />
        </mxCell>
        <mxCell id="QbpytwBjE6BO_EtpEexZ-5" value="Otel" style="rounded=0;whiteSpace=wrap;html=1;fillColor=#e1d5e7;strokeColor=#9673a6;fontSize=18;fontFamily=Helvetica;fontStyle=0" vertex="1" parent="1">
          <mxGeometry x="300" y="261" width="70" height="109" as="geometry" />
        </mxCell>
        <mxCell id="QbpytwBjE6BO_EtpEexZ-6" value="Zerolog" style="rounded=0;whiteSpace=wrap;html=1;fillColor=#e1d5e7;strokeColor=#9673a6;fontSize=18;fontFamily=Helvetica;fontStyle=0" vertex="1" parent="1">
          <mxGeometry x="370" y="261.5" width="70" height="109" as="geometry" />
        </mxCell>
        <mxCell id="QbpytwBjE6BO_EtpEexZ-8" value="TView" style="rounded=0;whiteSpace=wrap;html=1;fillColor=#d5e8d4;strokeColor=#82b366;fontSize=18;fontFamily=Helvetica;fontStyle=0" vertex="1" parent="1">
          <mxGeometry x="60" y="261" width="120" height="29" as="geometry" />
        </mxCell>
        <mxCell id="QbpytwBjE6BO_EtpEexZ-9" value="Goico Framework" style="rounded=0;whiteSpace=wrap;html=1;fillColor=#ffe6cc;strokeColor=#d79b00;fontSize=18;fontFamily=Helvetica;fontStyle=0" vertex="1" parent="1">
          <mxGeometry x="60" y="201" width="380" height="60" as="geometry" />
        </mxCell>
        <mxCell id="QbpytwBjE6BO_EtpEexZ-10" value="Services" style="rounded=0;whiteSpace=wrap;html=1;fillColor=#f8cecc;strokeColor=#b85450;fontSize=18;fontFamily=Helvetica;fontStyle=0" vertex="1" parent="1">
          <mxGeometry x="60" y="141" width="220" height="60" as="geometry" />
        </mxCell>
        <mxCell id="QbpytwBjE6BO_EtpEexZ-11" value="CMD" style="rounded=0;whiteSpace=wrap;html=1;fillColor=#d5e8d4;strokeColor=#82b366;fontSize=18;fontFamily=Helvetica;fontStyle=0" vertex="1" parent="1">
          <mxGeometry x="180" y="261" width="120" height="29" as="geometry" />
        </mxCell>
        <mxCell id="QbpytwBjE6BO_EtpEexZ-12" value="Admin Tools" style="rounded=0;whiteSpace=wrap;html=1;fillColor=#f8cecc;strokeColor=#b85450;fontSize=18;fontFamily=Helvetica;fontStyle=0" vertex="1" parent="1">
          <mxGeometry x="280" y="141" width="160" height="60" as="geometry" />
        </mxCell>
        <mxCell id="QbpytwBjE6BO_EtpEexZ-18" value="" style="group" vertex="1" connectable="0" parent="1">
          <mxGeometry x="180" y="330" width="120" height="40" as="geometry" />
        </mxCell>
        <mxCell id="QbpytwBjE6BO_EtpEexZ-14" value="" style="rounded=0;whiteSpace=wrap;html=1;fillColor=none;strokeColor=#82B366;" vertex="1" parent="QbpytwBjE6BO_EtpEexZ-18">
          <mxGeometry width="120" height="40" as="geometry" />
        </mxCell>
        <mxCell id="QbpytwBjE6BO_EtpEexZ-16" value="" style="group" vertex="1" connectable="0" parent="QbpytwBjE6BO_EtpEexZ-18">
          <mxGeometry width="120" height="40" as="geometry" />
        </mxCell>
        <mxCell id="QbpytwBjE6BO_EtpEexZ-7" value="Wasm" style="rounded=0;whiteSpace=wrap;html=1;fillColor=#d5e8d4;strokeColor=none;fontSize=18;fontFamily=Helvetica;fontStyle=0" vertex="1" parent="QbpytwBjE6BO_EtpEexZ-16">
          <mxGeometry width="120" height="20" as="geometry" />
        </mxCell>
        <mxCell id="QbpytwBjE6BO_EtpEexZ-13" value="Wazero" style="rounded=0;whiteSpace=wrap;html=1;fillColor=#d5e8d4;strokeColor=none;fontSize=18;fontFamily=Helvetica;fontStyle=0" vertex="1" parent="QbpytwBjE6BO_EtpEexZ-16">
          <mxGeometry y="20" width="120" height="20" as="geometry" />
        </mxCell>
        <mxCell id="QbpytwBjE6BO_EtpEexZ-15" value="" style="endArrow=none;html=1;rounded=0;strokeWidth=2;exitX=0;exitY=0;exitDx=0;exitDy=0;entryX=1;entryY=0;entryDx=0;entryDy=0;strokeColor=#82B366;dashed=1;" edge="1" parent="QbpytwBjE6BO_EtpEexZ-16">
          <mxGeometry width="50" height="50" relative="1" as="geometry">
            <mxPoint y="21" as="sourcePoint" />
            <mxPoint x="120" y="21" as="targetPoint" />
          </mxGeometry>
        </mxCell>
      </root>
    </mxGraphModel>
  </diagram>
</mxfile>
